<svg width="25" height="25" viewBox="0 0 25 25" fill="#000" xmlns="http://www.w3.org/2000/svg"><path d="M9 5.546c1.775 0 3.214 1.379 3.214 3.08 0 1.702-1.439 3.08-3.214 3.08s-3.214-1.378-3.214-3.08c0-1.701 1.439-3.08 3.214-3.08zm0 15.281c2.7-3.328 6.429-8.627 6.429-12.2 0-3.45-2.829-6.162-6.429-6.162S2.571 5.176 2.571 8.626C2.571 12.2 6.3 17.5 9 20.827zM9 0c5.014 0 9 3.82 9 8.626 0 5.177-5.657 12.201-8.1 14.912a1.237 1.237 0 01-1.928 0C5.657 20.828 0 13.803 0 8.626 0 3.82 3.986 0 9 0z"></path></svg>

